{"title":"Honey 2003 DVDrip English Klam","uid":6763745,"size":1579039244,"categoryP":"video","categoryS":"movies","magnet":"?xt=urn:btih:1d57a3dcfcd38c30be5780d819d747e2d0f6a8a7&amp;dn=Honey+2003+DVDrip+English+Klam&amp;tr=udp%3A%2F%2Ftracker.openbittorrent.com%3A80&amp;tr=udp%3A%2F%2Fopen.demonii.com%3A1337&amp;tr=udp%3A%2F%2Ftracker.coppersurfer.tk%3A6969&amp;tr=udp%3A%2F%2Fexodus.desync.com%3A6969","seeders":0,"leechers":1,"uploader":"Klambake","files":-1,"time":1319289929,"description":"With: Jessica Alba, Mekhi Phifer and Lil' Romeo\n\nHoney Daniels (Jessica Alba) wacht haar hele leven al om de wereld haar dans-moves te laten zien, maar alles wat ze graag wil, is net een stap te ver. Jarenlang hebben karakter en ambitie de danseres en eerzuchtige choreografe de moed gegeven om door te gaan, ondanks het feit dat de mensen die veel van haar houden twijfelen aan een mogelijk succes in zo'n moeilijk vak.\n\nHoney is a sexy, tough music video choreographer who shakes up her life after her mentor gives her an ultimatum: sleep with him or be blacklisted within their industry.\n\n------------------ Dutch Friends ------------------\nYou can find my Friends at: http://www.Film-Test.nl \n------ They got my dutch subs ----- and more ------\n\nGeneral:\n\nComplete name                    : Honey\\Honey.avi\nFormat                           : AVI\nFormat/Info                      : Audio Video Interleave\nFile size                        : 1.47 GiB\nDuration                         : 1h 33mn\nOverall bit rate                 : 2 238 Kbps\n\nVideo:\n\nFormat                           : MPEG-4 Visual\nFormat profile                   : Simple@L3\nFormat settings, BVOP            : No\nFormat settings, QPel            : No\nFormat settings, GMC             : No warppoints\nFormat settings, Matrix          : Default (H.263)\nCodec ID                         : XVID\nCodec ID/Hint                    : XviD\nDuration                         : 1h 33mn\nBit rate                         : 1 779 Kbps\nWidth                            : 652 pixels\nHeight                           : 352 pixels\nDisplay aspect ratio             : 1.852\nFrame rate                       : 23.976 fps\nColor space                      : YUV\nChroma subsampling               : 4:2:0\nBit depth                        : 8 bits\nScan type                        : Progressive\nCompression mode                 : Lossy\nBits/(Pixel*Frame)               : 0.323\nStream size                      : 1.17 GiB (80%)\nWriting library                  : XviD 1.1.2 (UTC 2006-11-01)\n\nAudio:\n\nFormat                           : AC-3\nFormat/Info                      : Audio Coding 3\nMode extension                   : CM (complete main)\nCodec ID                         : 2000\nDuration                         : 1h 33mn\nBit rate mode                    : Constant\nBit rate                         : 448 Kbps\nChannel(s)                       : 6 channels\nChannel positions                : Front: L C R, Side: L R, LFE\nSampling rate                    : 48.0 KHz\nBit depth                        : 16 bits\nCompression mode                 : Lossy\nStream size                      : 301 MiB (20%)\nAlignment                        : Aligned on interleaves\nInterleave, duration             : 32 ms (0.77 video frame)\nInterleave, preload duration     : 2016 ms\n\n\n","torrent":{"xt":"urn:btih:1d57a3dcfcd38c30be5780d819d747e2d0f6a8a7","amp;dn":"Honey+2003+DVDrip+English+Klam","amp;tr":["udp%3A%2F%2Ftracker.openbittorrent.com%3A80","udp%3A%2F%2Fopen.demonii.com%3A1337","udp%3A%2F%2Ftracker.coppersurfer.tk%3A6969","udp%3A%2F%2Fexodus.desync.com%3A6969"],"infoHash":"1d57a3dcfcd38c30be5780d819d747e2d0f6a8a7","infoHashBuffer":{"type":"Buffer","data":[29,87,163,220,252,211,140,48,190,87,128,216,25,215,71,226,208,246,168,167]},"announce":[],"urlList":[]}}